HIERARCHY
ROOT Hips
{
	OFFSET 0.00000 0.00000 0.00000
	CHANNELS 6 Xposition Yposition Zposition Zrotation Yrotation Xrotation 
	JOINT LHipJoint
	{
		OFFSET 0 0 0
		CHANNELS 3 Zrotation Yrotation Xrotation
		JOINT LeftHip
		{
			OFFSET 1.51378 -1.89840 0.47569
			CHANNELS 3 Zrotation Yrotation Xrotation
			JOINT LeftKnee
			{
				OFFSET 2.53380 -6.96157 0.00000
				CHANNELS 3 Zrotation Yrotation Xrotation
				JOINT LeftAnkle
				{
					OFFSET 2.74874 -7.55212 0.00000
					CHANNELS 3 Zrotation Yrotation Xrotation
					JOINT LeftToe
					{
						OFFSET 0.18263 -0.50178 1.99677
						CHANNELS 3 Zrotation Yrotation Xrotation
						End Site
						{
							OFFSET 0.00000 -0.00000 1.03711
						}
					}
				}
			}
		}
	}
	JOINT RHipJoint
	{
		OFFSET 0 0 0
		CHANNELS 3 Zrotation Yrotation Xrotation
		JOINT RightHip
		{
			OFFSET -1.43037 -1.89840 0.47569
			CHANNELS 3 Zrotation Yrotation Xrotation
			JOINT RightKnee
			{
				OFFSET -2.69849 -7.41406 0.00000
				CHANNELS 3 Zrotation Yrotation Xrotation
				JOINT RightAnkle
				{
					OFFSET -2.69369 -7.40087 0.00000
					CHANNELS 3 Zrotation Yrotation Xrotation
					JOINT RightToe
					{
						OFFSET -0.28932 -0.79491 2.04975
						CHANNELS 3 Zrotation Yrotation Xrotation
						End Site
						{
							OFFSET 0.00009 0.00010 1.09536
						}
					}
				}
			}
		}
	}
	JOINT lowerback
	{
		OFFSET 0 0 0
		CHANNELS 3 Zrotation Yrotation Xrotation
		JOINT Chest
		{
			OFFSET 0.01912 1.94784 -0.02419
			CHANNELS 3 Zrotation Yrotation Xrotation
			JOINT Chest2
			{
				OFFSET 0.07565 1.94258 0.01909
				CHANNELS 3 Zrotation Yrotation Xrotation
				JOINT lowerneck
				{
					OFFSET 0 0 0
					CHANNELS 3 Zrotation Yrotation Xrotation
					JOINT Neck
					{
						OFFSET -0.07010 1.86195 0.18976
						CHANNELS 3 Zrotation Yrotation Xrotation
						JOINT Head
						{
							OFFSET 0.02284 1.86595 -0.31497
							CHANNELS 3 Zrotation Yrotation Xrotation
							End Site
							{
								OFFSET 0.01200 1.90122 -0.12838
							}
						}
					}
				}
				JOINT LeftCollar
				{
					OFFSET 0 0 0
					CHANNELS 3 Zrotation Yrotation Xrotation
					JOINT LeftShoulder
					{
						OFFSET 3.39189 0.96331 -0.10437
CHANNELS 3 Zrotation Xrotation Yrotation
						JOINT LeftElbow
						{
OFFSET 0 -5.148450 0.000000
CHANNELS 3 Zrotation Xrotation Yrotation
							JOINT LeftWrist
							{
OFFSET 0 -3.436740 -0.000000
CHANNELS 3 Zrotation Xrotation Yrotation
								JOINT lhand
								{
									OFFSET 0 0 0
CHANNELS 3 Zrotation Xrotation Yrotation
									JOINT LFingers
									{
OFFSET 0 -0.588710 0.000000
CHANNELS 3 Zrotation Xrotation Yrotation
										End Site
										{
OFFSET 0 -0.474630 0.000000
										}
									}
								}
								JOINT LThumb
								{
OFFSET 0 0.000000 0.000000
CHANNELS 3 Zrotation Xrotation Yrotation
									End Site
									{
OFFSET 0 -0.481880 0.481880
									}
								}
							}
						}
					}
				}
				JOINT RightCollar
				{
					OFFSET 0 0 0
					CHANNELS 3 Zrotation Yrotation Xrotation
					JOINT RightShoulder
					{
						OFFSET -3.34934 1.18831 -0.19928
CHANNELS 3 Zrotation Xrotation Yrotation
						JOINT RightElbow
						{
OFFSET 0 -5.421850 0.000000
CHANNELS 3 Zrotation Xrotation Yrotation
							JOINT RightWrist
							{
OFFSET 0 -3.513170 -0.000000
CHANNELS 3 Zrotation Xrotation Yrotation
								JOINT rhand
								{
									OFFSET 0 0 0
CHANNELS 3 Zrotation Xrotation Yrotation
									JOINT RFingers
									{
OFFSET 0 -0.663190 0.000000
CHANNELS 3 Zrotation Xrotation Yrotation
										End Site
										{
OFFSET 0 -0.534680 0.000000
										}
									}
								}
								JOINT RThumb
								{
OFFSET 0 0.000000 0.000000
CHANNELS 3 Zrotation Xrotation Yrotation
									End Site
									{
OFFSET 0 -0.542840 0.542840
									}
								}
							}
						}
					}
				}
			}
		}
	}
}
MOTION
Frames: 11
Frame Time: 0.008333333333333333
-14.009493 17.697390 -13.521323 -1.955359 36.523599 12.285160 0.000000 0.000000 0.000000 -13.117707 -10.725266 -38.116619 0.683957 5.286079 14.726675 0.542867 2.138913 -14.857607 0.603750 -4.969500 -13.822467 0.000000 0.000000 0.000000 26.380257 5.515383 -10.383185 -2.020887 -8.909338 25.512169 -2.538322 -5.713091 -32.528778 -0.030937 1.135405 -3.121463 0.576281 1.479431 1.790274 2.655685 2.005370 0.742978 2.357636 1.006418 -0.317418 -1.723072 3.687199 -14.134643 -9.254574 9.324795 30.218041 -1.806846 2.914858 12.892948 0.000000 0.000000 0.000000 -1.516177 2.961620 -16.701402 24.043968 -35.210384 7.732042 19.350344 -4.850232 -25.363329 0.000000 0.000000 0.000000 -7.125000 0.000000 0.000000 -11.279029 56.299572 3.153021 0.000000 0.000000 0.000000 -0.544449 10.200421 16.539213 -16.219900 -25.817835 -3.741243 -28.600498 -11.395312 -11.900967 0.000000 0.000000 0.000000 7.125000 0.000000 0.000000 -0.972113 16.481974 -0.657975
-13.352815 17.608772 -12.934335 -1.494559 38.980676 13.003834 0.000000 0.000000 0.000000 -13.243290 -12.665781 -36.445954 0.390795 4.013973 11.116023 0.198439 3.069192 -10.123247 0.272765 -3.359540 -9.281501 0.000000 0.000000 0.000000 26.346539 3.706384 -7.296358 -1.778499 -8.388597 23.900592 -2.399764 -8.048268 -32.986666 -0.190117 2.808222 -7.745188 -0.099706 1.550153 1.037917 2.453871 2.077937 0.664629 2.548634 1.039968 0.004550 -2.070861 2.943218 -14.621452 -8.833943 8.355275 30.921268 -1.739040 2.463139 13.201553 0.000000 0.000000 0.000000 -2.499537 3.245287 -15.055880 21.026616 -31.859368 6.063950 17.673129 -3.229645 -23.228164 0.000000 0.000000 0.000000 -7.125000 0.000000 0.000000 -12.016867 53.827335 2.637215 0.000000 0.000000 0.000000 -0.849589 9.610901 18.024914 -17.234161 -27.165511 -4.193674 -28.541925 -13.451853 -11.210375 0.000000 0.000000 0.000000 7.125000 0.000000 0.000000 -0.989737 17.267203 -0.651454
-12.517073 17.632253 -12.281344 0.030070 40.730296 13.281990 0.000000 0.000000 0.000000 -16.815207 -11.955472 -35.341301 0.731820 5.465505 15.241193 0.037154 2.141209 -5.070422 0.136129 -2.377763 -6.550832 0.000000 0.000000 0.000000 24.681442 2.353086 -4.350971 -2.175212 -9.219925 26.487243 -1.802743 -9.123768 -30.041657 -0.768456 5.597378 -15.620659 -1.303129 1.764519 1.165159 1.932334 2.347508 0.751241 2.681672 1.170260 -0.016524 -2.194832 2.274451 -14.867612 -8.514467 7.520680 32.044876 -1.743092 2.085968 13.675537 0.000000 0.000000 0.000000 -3.962875 4.776604 -13.132563 18.898419 -29.291150 4.981594 18.671198 -1.449113 -23.824975 0.000000 0.000000 0.000000 -7.125000 0.000000 0.000000 -11.267703 54.616135 2.687478 0.000000 0.000000 0.000000 -1.594850 8.352609 19.048884 -17.267026 -27.208302 -4.208737 -29.159390 -14.560567 -11.709876 0.000000 0.000000 0.000000 7.125000 0.000000 0.000000 -1.376262 16.630061 -0.925218
-11.573438 17.746642 -11.573234 1.566943 45.035467 12.642857 0.000000 0.000000 0.000000 -20.101734 -11.996467 -30.751381 0.916401 6.099320 17.072930 0.024149 -1.579557 -2.818301 0.098016 -2.008787 -5.530323 0.000000 0.000000 0.000000 23.033372 -1.283201 -7.221578 -4.598091 -12.912562 39.048341 -0.556414 -8.886060 -19.987248 -0.409058 4.103111 -11.367216 -2.129741 1.498899 1.262830 1.692350 1.982762 1.144044 2.909266 0.976043 0.332964 -2.471294 1.102388 -14.070388 -7.801311 5.767571 33.039133 -1.715484 1.395214 13.805932 0.000000 0.000000 0.000000 -5.023991 6.356562 -12.959057 16.617424 -26.350568 3.916099 20.563115 1.492417 -25.211042 0.000000 0.000000 0.000000 -7.125000 0.000000 0.000000 -9.932990 56.398947 2.793376 0.000000 0.000000 0.000000 -2.045904 6.470314 16.576826 -16.820472 -26.620474 -4.006570 -28.651838 -12.153991 -10.568267 0.000000 0.000000 0.000000 7.125000 0.000000 0.000000 -1.117833 17.978488 -0.718408
-10.687952 17.852166 -10.858666 2.524195 48.285404 12.052758 0.000000 0.000000 0.000000 -22.216884 -11.574883 -26.556631 1.177501 6.887320 19.381914 0.038201 -5.190232 -4.754411 0.001053 0.208574 0.573049 0.000000 0.000000 0.000000 21.584583 -0.616011 -15.305899 -9.122209 -16.885533 56.511685 0.612795 -13.896117 -2.727747 -0.644638 -5.135598 14.295873 -3.330361 1.481938 1.391698 1.584711 1.947516 1.277626 3.473114 0.948960 0.365631 -2.976849 0.105534 -13.825819 -6.543847 4.141632 34.022291 -1.397071 0.785946 14.064343 0.000000 0.000000 0.000000 -4.579492 9.597442 -16.618587 17.224356 -27.152625 4.189250 16.825000 0.917721 -23.681850 0.000000 0.000000 0.000000 -7.125000 0.000000 0.000000 -13.074171 54.120598 2.969638 0.000000 0.000000 0.000000 -2.881692 4.897335 18.222425 -17.540544 -27.564742 -4.334524 -29.233321 -12.956863 -11.319141 0.000000 0.000000 0.000000 7.125000 0.000000 0.000000 -1.461780 17.063302 -0.968815
-9.897158 17.870589 -10.183881 1.866234 51.519572 10.418499 0.000000 0.000000 0.000000 -22.550168 -12.132107 -23.254394 1.670487 8.142703 23.148543 0.220567 -5.947697 -8.739395 0.001521 0.172686 0.474418 0.000000 0.000000 0.000000 21.606512 0.724639 -24.844800 -13.288963 -18.883450 70.020165 0.506654 -12.661475 -6.836583 -0.351464 -3.808823 10.539498 -3.065799 1.329995 1.778029 1.854152 1.741801 1.608664 3.601168 0.840880 0.506212 -3.770486 -0.717936 -13.243202 -6.065784 3.011971 34.213921 -1.241420 0.281805 13.969878 0.000000 0.000000 0.000000 -3.996924 11.020120 -18.717865 18.593332 -28.910206 4.832618 16.051987 1.340261 -22.509910 0.000000 0.000000 0.000000 -7.125000 0.000000 0.000000 -13.320822 52.817385 2.596856 0.000000 0.000000 0.000000 -3.538317 1.755588 18.610018 -19.599069 -30.155710 -5.328697 -28.362300 -14.320497 -11.313670 0.000000 0.000000 0.000000 7.125000 0.000000 0.000000 -0.856186 17.171659 -0.565359
-9.118669 17.786862 -9.525949 1.397999 53.267144 9.787628 0.000000 0.000000 0.000000 -22.623057 -12.948900 -21.290649 2.375824 9.608019 27.716964 0.591149 -6.023608 -13.723814 0.048464 1.340166 3.686546 0.000000 0.000000 0.000000 20.456161 3.973941 -34.183846 -13.758889 -19.039143 71.466641 -0.163548 -8.289089 -14.611632 -0.059840 -1.577751 4.340175 -2.675983 1.272446 1.624823 1.979507 1.672802 1.458518 3.513461 0.812340 0.450478 -3.991941 -1.054568 -12.399522 -5.937478 2.624102 34.993587 -1.220149 0.124016 14.123019 0.000000 0.000000 0.000000 -4.211032 11.243268 -16.506960 19.435265 -29.955842 5.246448 20.009765 1.805608 -25.614412 0.000000 0.000000 0.000000 -7.125000 0.000000 0.000000 -10.708940 56.690085 3.093355 0.000000 0.000000 0.000000 -3.634012 -0.424307 17.902048 -23.105929 -34.203535 -7.198167 -28.296126 -16.350001 -10.727107 0.000000 0.000000 0.000000 7.125000 0.000000 0.000000 -0.856124 17.838220 -0.552920
-8.331369 17.660247 -8.838214 1.240981 54.076594 9.741987 0.000000 0.000000 0.000000 -22.948360 -12.507906 -18.923444 2.883345 10.503741 30.624045 1.126583 -5.880714 -18.969679 0.041379 1.309783 3.601565 0.000000 0.000000 0.000000 18.479361 7.542654 -41.019494 -10.335796 -17.594166 60.604600 -0.732658 -6.185461 -19.578910 -0.000788 -0.181045 0.497382 -2.465088 1.202188 1.666374 2.074196 1.581007 1.252273 3.489799 0.774268 0.225649 -3.792187 -1.111159 -11.884797 -6.141572 2.583951 35.254825 -1.345731 0.122715 14.130616 0.000000 0.000000 0.000000 -4.337941 10.894710 -13.989751 19.736412 -30.323471 5.397613 16.906676 0.865426 -24.281343 0.000000 0.000000 0.000000 -7.125000 0.000000 0.000000 -13.272050 54.731058 3.213568 0.000000 0.000000 0.000000 -4.051445 -1.749762 18.704777 -26.892694 -38.076626 -9.432862 -27.669423 -19.455424 -12.211934 0.000000 0.000000 0.000000 7.125000 0.000000 0.000000 -0.303559 16.247513 -0.206488
-7.514616 17.719401 -8.083118 0.937098 54.327407 9.638852 0.000000 0.000000 0.000000 -23.311992 -10.521247 -13.254790 2.289041 9.442976 27.191814 1.333709 -5.193448 -20.741831 0.003344 0.337206 0.926549 0.000000 0.000000 0.000000 16.536290 10.703444 -41.730082 -4.456446 -12.734064 38.397090 -0.161507 -7.655536 -13.832188 -0.000894 -0.194902 0.535511 -2.281884 1.059267 1.744865 2.302608 1.393363 1.281654 3.624651 0.681168 0.225358 -3.949680 -1.064660 -11.932188 -6.170872 2.665978 34.963284 -1.311181 0.135625 14.011819 0.000000 0.000000 0.000000 -3.934396 10.624010 -15.326312 20.466849 -31.200502 5.771282 20.356798 0.778171 -24.833728 0.000000 0.000000 0.000000 -7.125000 0.000000 0.000000 -9.976824 55.973736 2.701208 0.000000 0.000000 0.000000 -4.608476 -2.978275 20.234622 -29.312030 -40.296327 -10.961949 -27.476031 -19.381384 -11.292416 0.000000 0.000000 0.000000 7.125000 0.000000 0.000000 -0.239982 17.295630 -0.157816
-6.672499 17.735473 -7.273258 1.855912 55.067827 9.809260 0.000000 0.000000 0.000000 -24.185149 -7.767960 -5.812033 1.477283 7.679583 21.745110 1.368968 -4.737806 -21.071474 0.020039 -0.911337 -2.504826 0.000000 0.000000 0.000000 11.646585 16.252868 -36.922938 -1.188117 -6.914180 19.462662 -0.006454 -8.478766 -12.206578 -0.082702 1.850160 -5.091966 -2.484527 0.724516 2.316146 2.421107 0.937197 1.627155 3.865841 0.446567 0.291989 -4.291239 -1.056831 -12.302743 -6.049121 2.695261 34.636551 -1.192915 0.112529 13.945810 0.000000 0.000000 0.000000 -3.276330 10.137899 -17.261087 20.764074 -31.551978 5.926049 18.887949 -0.842919 -24.386914 0.000000 0.000000 0.000000 -7.125000 0.000000 0.000000 -11.298505 55.224069 2.862865 0.000000 0.000000 0.000000 -4.663934 -3.774934 20.821107 -29.209953 -40.206499 -10.896023 -27.676126 -19.354196 -11.827938 0.000000 0.000000 0.000000 7.125000 0.000000 0.000000 -0.338629 16.675388 -0.226990
-5.784259 17.664624 -6.414940 1.682717 54.729613 9.288794 0.000000 0.000000 0.000000 -24.200175 -6.014945 -1.320151 1.532341 7.815156 22.153942 1.369969 -3.886045 -21.194021 0.048806 -1.419683 -3.904587 0.000000 0.000000 0.000000 13.054936 15.352154 -36.572057 -1.580382 -7.930993 22.504694 -0.179896 -3.982653 -10.489072 -0.210674 2.954745 -8.152788 -1.871789 0.481207 2.375841 2.745434 0.626152 1.798269 3.862649 0.291194 0.463404 -4.340486 -0.847733 -12.522722 -6.452098 3.118092 34.292265 -1.276832 0.235245 13.862988 0.000000 0.000000 0.000000 -3.169410 8.965324 -16.969721 19.938715 -30.568388 5.500096 18.899138 0.265903 -24.231431 0.000000 0.000000 0.000000 -7.125000 0.000000 0.000000 -11.216196 55.069838 2.799415 0.000000 0.000000 0.000000 -4.337018 -3.626436 20.888880 -26.863966 -38.049151 -9.415188 -28.439618 -17.747699 -11.687613 0.000000 0.000000 0.000000 7.125000 0.000000 0.000000 -0.879429 16.742390 -0.588852
